HIERARCHY
ROOT Hips
{
	OFFSET -14.338637 100.724503 -2.982331
	CHANNELS 6 Xposition Yposition Zposition Xrotation Yrotation Zrotation
	JOINT Chest
	{
		OFFSET 0.395646 13.301445 3.011504
		CHANNELS 3 Xrotation Yrotation Zrotation
		JOINT Chest2
		{
			OFFSET 4.112341 20.247383 5.674367
			CHANNELS 3 Xrotation Yrotation Zrotation
			JOINT Chest3
			{
				OFFSET 4.523842 14.052505 2.209478
				CHANNELS 3 Xrotation Yrotation Zrotation
				JOINT Neck
				{
					OFFSET 4.734061 16.149261 3.925043
					CHANNELS 3 Xrotation Yrotation Zrotation
					JOINT Head
					{
						OFFSET 2.953211 9.171768 4.121262
						CHANNELS 3 Xrotation Yrotation Zrotation
						End Site
						{
							OFFSET 2.984250 9.190063 4.057679
						}
					}
				}
				JOINT LeftCollar
				{
					OFFSET 6.264430 10.644882 7.017686
					CHANNELS 3 Xrotation Yrotation Zrotation
					JOINT LeftUpArm
					{
						OFFSET 15.929732 -6.691757 3.156478
						CHANNELS 3 Xrotation Yrotation Zrotation
						JOINT LeftLowArm
						{
							OFFSET -18.026968 -25.592041 12.641388
							CHANNELS 3 Xrotation Yrotation Zrotation
							JOINT LeftHand
							{
								OFFSET -22.054136 -15.833199 12.801264
								CHANNELS 3 Xrotation Yrotation Zrotation
								End Site
								{
									OFFSET -4.820059 -3.460442 2.797783
								}
							}
						}
					}
				}
				JOINT RightCollar
				{
					OFFSET -1.179303 13.486313 4.305471
					CHANNELS 3 Xrotation Yrotation Zrotation
					JOINT RightUpArm
					{
						OFFSET -14.605325 3.286682 -9.185782
						CHANNELS 3 Xrotation Yrotation Zrotation
						JOINT RightLowArm
						{
							OFFSET -10.498251 -30.078674 11.171204
							CHANNELS 3 Xrotation Yrotation Zrotation
							JOINT RightHand
							{
								OFFSET 5.527328 -22.491547 19.092785
								CHANNELS 3 Xrotation Yrotation Zrotation
								End Site
								{
									OFFSET 1.208054 -4.915749 4.172916
								}
							}
						}
					}
				}
			}
		}
	}
	JOINT LeftUpLeg
	{
		OFFSET 8.244978 -1.490044 5.497202
		CHANNELS 3 Xrotation Yrotation Zrotation
		JOINT LeftLowLeg
		{
			OFFSET 9.808283 -45.828213 6.896551
			CHANNELS 3 Xrotation Yrotation Zrotation
			JOINT LeftFoot
			{
				OFFSET 28.146282 27.196484 -21.649689
				CHANNELS 3 Xrotation Yrotation Zrotation
				JOINT LeftToe
				{
					OFFSET 18.794809 -5.427658 -13.298717
					CHANNELS 3 Xrotation Yrotation Zrotation
					End Site
					{
						OFFSET 13.865257 -18.383480 -5.418600
					}
				}
			}
		}
	}
	JOINT RightUpLeg
	{
		OFFSET -8.244988 1.489853 -5.497248
		CHANNELS 3 Xrotation Yrotation Zrotation
		JOINT RightLowLeg
		{
			OFFSET -0.793232 -47.317097 -2.115156
			CHANNELS 3 Xrotation Yrotation Zrotation
			JOINT RightFoot
			{
				OFFSET 15.071437 -38.024059 -18.099758
				CHANNELS 3 Xrotation Yrotation Zrotation
				JOINT RightToe
				{
					OFFSET -8.599118 -17.445747 13.463188
					CHANNELS 3 Xrotation Yrotation Zrotation
					End Site
					{
						OFFSET -15.031992 -3.551874 17.915903
					}
				}
			}
		}
	}
}
MOTION
Frames: 10
Frame Time: 0.033333
-16.728132 96.993591 -2.846968 -1.012489 47.495425 2.525413 18.933515 -4.536206 13.970413 -8.201092 -3.885639 4.635526 -7.178157 -8.774191 -1.853514 -20.343993 -21.803799 9.536923 0.000001 -0.000001 0.000001 -1.609147 -4.365965 8.595901 -21.689139 -11.720760 -9.762389 -9.074958 -3.768568 -2.970158 0.000003 0.000001 -0.000000 1.471989 -0.730253 11.596812 2.023074 0.213487 -30.748316 -35.934247 10.122055 3.438148 -0.000002 0.000003 0.000003 -37.213620 -7.622374 11.801994 39.041051 53.648814 -102.290832 -62.459095 -61.833313 -24.443910 -0.000002 -0.000003 -0.000000 -20.235926 5.752091 -14.514292 2.729410 -5.403778 28.581208 6.434089 -34.175500 -11.362049 0.000001 -0.000002 0.000000 
-16.734304 96.953918 -2.822536 -1.363164 47.436811 2.474819 19.227876 -4.552733 14.178117 -8.096937 -3.935128 4.683667 -7.285129 -8.670076 -1.827312 -20.441561 -21.830118 9.581923 0.000002 -0.000002 0.000003 -1.674810 -4.272347 8.569324 -21.414468 -11.581613 -9.722142 -8.832901 -3.926558 -3.249800 -0.000000 0.000001 -0.000002 1.418080 -0.646776 11.588183 2.080174 -0.411522 -30.489551 -36.191431 10.121557 4.187880 -0.000000 -0.000001 -0.000001 -36.991543 -7.592852 11.881806 38.696444 53.586242 -101.823442 -62.402678 -61.613695 -24.513819 0.000002 -0.000003 -0.000000 -20.097564 5.669354 -14.364518 2.682560 -5.316838 28.640423 6.344575 -34.056577 -11.302981 0.000000 0.000001 0.000000 
-16.735453 96.914314 -2.794082 -1.647652 47.545039 2.497901 19.314189 -4.564091 14.310553 -8.335665 -3.874877 4.572422 -7.156627 -9.002135 -1.835294 -20.037378 -21.967123 9.648992 0.000000 -0.000000 0.000000 -1.779174 -4.038033 8.643146 -21.424683 -11.449163 -9.775538 -8.495826 -4.073722 -3.468110 -0.000000 0.000004 0.000001 1.354924 -0.610642 11.463346 1.971734 -0.708333 -30.404768 -36.041170 10.103688 5.030057 0.000002 0.000004 -0.000003 -36.847764 -7.547140 11.937325 38.327514 53.601371 -101.212543 -61.576648 -61.732561 -23.636329 0.000003 0.000002 -0.000000 -20.015395 5.635347 -14.462044 2.856104 -5.360230 28.995229 6.760069 -34.070172 -11.062558 0.000001 -0.000002 -0.000001 
-16.737930 96.878716 -2.771055 -1.794932 47.366122 2.525890 19.202028 -4.548570 14.087041 -7.996665 -4.050910 4.789925 -7.304915 -8.576096 -1.885833 -20.268605 -22.054635 9.626159 -0.000000 0.000000 -0.000002 -1.710767 -5.023737 8.630651 -21.322715 -11.376327 -9.460355 -9.206572 -3.335344 -3.013392 -0.000001 0.000002 -0.000000 1.178038 -1.056730 11.408269 2.089228 -0.925333 -30.421676 -36.228754 10.257708 5.407900 -0.000001 0.000002 -0.000002 -36.895295 -7.524439 11.924990 38.514921 53.645781 -101.215392 -61.336089 -61.181201 -23.898132 0.000003 -0.000003 -0.000001 -19.884282 5.510781 -14.263686 2.876745 -5.431448 28.726751 6.968929 -33.760105 -10.872002 0.000001 0.000001 -0.000001 
-16.739447 96.850121 -2.752129 -2.152748 47.045291 2.564153 19.746649 -4.576666 14.410741 -8.596456 -3.522253 4.186758 -6.803190 -8.813191 -1.415121 -20.143264 -21.980305 9.679899 0.000003 -0.000000 -0.000001 -1.673073 -4.810747 8.592759 -21.618611 -11.295708 -9.500815 -8.649673 -3.560897 -3.242792 -0.000003 0.000003 0.000001 1.151696 -1.103384 11.357665 2.071727 -1.239450 -30.477824 -36.313544 10.175447 6.120526 -0.000001 0.000003 0.000003 -36.480621 -7.601051 12.347022 38.926734 53.552276 -101.897379 -61.132358 -61.173100 -23.566950 0.000001 -0.000002 0.000001 -19.313719 5.195140 -13.614186 2.639845 -5.298336 28.229244 6.222305 -33.202625 -11.175677 0.000001 -0.000002 -0.000001 
-16.747858 96.821289 -2.736829 -1.909712 47.105240 2.639453 19.386676 -4.524953 14.010105 -8.504021 -3.739085 4.444847 -6.803449 -8.720582 -1.668900 -20.314113 -22.169609 9.786590 0.000002 -0.000001 0.000002 -1.666551 -5.457592 8.579737 -21.552793 -11.209497 -9.239016 -8.863221 -3.482947 -3.285798 0.000002 -0.000001 -0.000001 0.908926 -1.617206 11.365942 2.062826 -1.364568 -30.511418 -36.158817 10.374437 7.022695 -0.000000 -0.000000 -0.000004 -36.576172 -7.582137 12.252211 39.045832 53.575802 -102.170116 -60.693942 -61.077157 -23.162152 0.000004 -0.000001 -0.000005 -19.179967 5.132926 -13.602044 2.489573 -5.341362 27.948562 6.181009 -33.263267 -11.161039 0.000001 0.000003 0.000001 
-16.751053 96.793365 -2.714045 -2.012004 46.929578 2.534629 19.355899 -4.510193 13.868376 -8.286557 -3.980603 4.744502 -7.138264 -8.779212 -1.959501 -19.634289 -22.039608 9.911069 0.000004 -0.000002 -0.000001 -1.341219 -4.780134 8.443081 -20.939519 -11.356133 -9.161795 -9.299575 -3.492606 -3.502301 0.000002 0.000003 0.000003 1.145199 -1.436269 11.456304 2.349260 -1.202862 -30.482728 -36.488530 10.466909 7.001724 0.000002 0.000002 -0.000002 -36.532937 -7.670486 12.459350 39.451999 53.490159 -102.553508 -60.907543 -61.266708 -23.301703 0.000001 0.000000 -0.000004 -19.352397 5.228889 -13.591699 2.519397 -5.242358 28.015725 6.330480 -33.003894 -11.045662 0.000002 0.000003 0.000000 
-16.753345 96.766998 -2.694912 -2.016110 46.798609 2.422809 18.967673 -4.475796 13.525234 -7.996277 -4.070664 4.905961 -7.110123 -8.746316 -1.845432 -19.452811 -22.069919 9.950169 0.000002 -0.000002 -0.000000 -1.067624 -4.903687 8.356791 -21.331237 -11.575249 -8.858045 -9.577189 -3.947005 -3.668055 -0.000002 0.000003 0.000001 1.287781 -1.485059 11.513377 2.538499 -0.537124 -30.970383 -36.537294 10.718602 6.693722 -0.000002 0.000005 -0.000002 -36.652564 -7.722224 12.417876 39.692319 53.463750 -102.574497 -61.243089 -61.336205 -23.613376 0.000002 0.000003 -0.000006 -19.393880 5.291082 -13.534633 2.387598 -5.381028 27.904888 6.536208 -32.995647 -10.914661 0.000001 0.000005 0.000001 
-16.756607 96.743744 -2.669596 -2.595707 46.963097 2.423344 19.367000 -4.553854 14.109707 -8.137487 -3.907721 4.719378 -7.193123 -9.223927 -2.011191 -19.044210 -21.960679 10.021959 0.000001 -0.000004 -0.000002 -0.934773 -4.422452 8.172246 -20.987833 -11.514198 -8.722431 -9.589363 -3.898549 -3.639121 -0.000000 0.000005 0.000000 1.555470 -0.891468 11.706677 2.583717 -0.733923 -31.087586 -36.607615 10.688769 6.810608 -0.000000 0.000003 0.000003 -36.475823 -7.694282 12.416046 39.275251 53.372242 -101.806196 -61.138676 -61.433747 -23.356148 0.000001 -0.000002 -0.000002 -19.452087 5.352601 -13.672702 2.575496 -5.271563 28.482517 6.867166 -33.288102 -10.775613 -0.000000 0.000001 -0.000000 
-16.765867 96.723610 -2.653918 -2.360103 47.022943 2.365820 19.143301 -4.543972 13.908263 -8.092858 -4.017537 4.832728 -7.248861 -9.014280 -2.079015 -19.257558 -22.137285 10.007713 0.000002 0.000001 0.000003 -0.985224 -4.658512 8.322378 -21.488605 -11.597320 -8.820242 -9.337431 -4.355244 -3.620628 0.000001 -0.000001 -0.000003 1.294912 -1.532584 11.545864 2.500795 -0.419745 -31.080595 -36.313148 10.868785 7.280700 -0.000001 0.000001 -0.000000 -36.434937 -7.695205 12.475849 39.194931 53.418066 -101.988446 -60.731604 -61.736980 -22.892093 0.000002 -0.000003 -0.000000 -19.536139 5.334163 -13.603956 2.465586 -5.332793 28.107031 6.988723 -33.111453 -10.623908 0.000001 -0.000000 0.000001 
